<?xml version="1.0" encoding="UTF-8" standalone="no"?>
<svg
   viewBox="0 0 1000.0005 561.4375"
   version="1.1"
   id="svg12"
   sodipodi:docname="Mediacorp 8 (2023).svg"
   width="1000.0005"
   height="561.4375"
   inkscape:version="1.2.1 (9c6d41e410, 2022-07-14)"
   xml:space="preserve"
   xmlns:inkscape="http://www.inkscape.org/namespaces/inkscape"
   xmlns:sodipodi="http://sodipodi.sourceforge.net/DTD/sodipodi-0.dtd"
   xmlns="http://www.w3.org/2000/svg"
   xmlns:svg="http://www.w3.org/2000/svg"><sodipodi:namedview
     id="namedview14"
     pagecolor="#ffffff"
     bordercolor="#666666"
     borderopacity="1.0"
     inkscape:showpageshadow="2"
     inkscape:pageopacity="0.0"
     inkscape:pagecheckerboard="0"
     inkscape:deskcolor="#d1d1d1"
     showgrid="false"
     inkscape:zoom="0.70710678"
     inkscape:cx="513.35952"
     inkscape:cy="268.70058"
     inkscape:window-width="1366"
     inkscape:window-height="705"
     inkscape:window-x="-8"
     inkscape:window-y="-8"
     inkscape:window-maximized="1"
     inkscape:current-layer="svg12" /><defs
     id="defs4"><style
       id="style2">.cls-1{fill:#00229c;}</style><style
       id="style2-8">.cls-1{fill:#00229c;}</style><linearGradient
       y2="11.1342"
       x2="37.808601"
       y1="11.1342"
       x1="12.6028"
       gradientUnits="userSpaceOnUse"
       id="Gradient__1"
       gradientTransform="scale(7.9365079)"><stop
         id="stop25653"
         style="stop-color:#ec008c;stop-opacity:1;"
         offset="0.09810127" /><stop
         id="stop25655"
         style="stop-color:#2E3192"
         offset="0.89873415" /></linearGradient><linearGradient
       y2="11.1342"
       x2="37.808601"
       y1="11.1342"
       x1="12.6028"
       gradientUnits="userSpaceOnUse"
       id="Gradient__2"
       gradientTransform="scale(7.9365079)"><stop
         id="stop24921"
         style="stop-color:#f6921e;stop-opacity:1;"
         offset="0.09810133" /><stop
         id="stop24923"
         style="stop-color:#be1e2d;stop-opacity:1"
         offset="0.89999998" /></linearGradient><linearGradient
       y2="11.1342"
       x2="113.4254"
       y1="11.1342"
       x1="75.616699"
       gradientUnits="userSpaceOnUse"
       id="Gradient__3"><stop
         id="stop4326-2"
         style="stop-color:#49C0B6"
         offset="0.09983418" /><stop
         id="stop4332-5"
         style="stop-color:#0072BC"
         offset="0.90189874" /></linearGradient><linearGradient
       y2="22.268499"
       x2="75.616898"
       y1="44.537498"
       x1="75.616898"
       gradientUnits="userSpaceOnUse"
       id="Gradient__4"><stop
         id="stop3910-6"
         style="stop-color:#BCD85F"
         offset="0.10443038" /><stop
         id="stop3920-5"
         style="stop-color:#00664B"
         offset="0.89873421" /></linearGradient><style
       id="style2-02">.cls-1{fill:#00229c;}</style><style
       id="style2-8-2">.cls-1{fill:#00229c;}</style><style
       id="style2-35">.cls-1{fill:#00229c;}</style></defs><style
     type="text/css"
     id="style2-5">
	.st0{fill:#FFFFFF;}
	.st1{fill:#0767B0;}
	.st2{fill:#00A44F;}
	.st3{fill:#EA2127;}
	.st4{fill:#221F1F;}
</style><style
     type="text/css"
     id="style2-4">
	.st0{fill:#FFFFFF;}
	.st1{fill:#0066B2;}
	.st2{fill:#00A551;}
	.st3{fill:#EC1C24;}
	.st4{fill:#231F20;}
	.st5{fill:#221F1F;}
</style><style
     type="text/css"
     id="style2-3">
	.st0{fill:#FFFFFF;}
	.st1{fill:#0066B2;}
	.st2{fill:#00A551;}
	.st3{fill:#EC1C24;}
	.st4{fill:#231F20;}
	.st5{fill:#221F1F;}
</style><style
     type="text/css"
     id="style2-0">
	.st0{fill:#FFFFFF;}
	.st1{fill:#0066B2;}
	.st2{fill:#00A551;}
	.st3{fill:#EC1C24;}
	.st4{fill:#231F20;}
	.st5{fill:#221F1F;}
</style><path
     id="path3652"
     style="opacity:1;fill:#ffbd00;fill-opacity:1;stroke-width:1.66944"
     d="M 280.71875 0 C 125.20352 0 0 125.20358 0 280.71875 C 0 436.23399 125.20352 561.4375 280.71875 561.4375 C 436.23396 561.4375 561.4375 436.23399 561.4375 280.71875 C 561.4375 125.20358 436.23396 -9.9623449e-08 280.71875 0 z M 889.36328 0 C 803.3265 -0.00017575023 709.1362 61.558806 679.15039 137.55859 C 653.17089 203.40439 683.90909 259.96197 752.27344 272.36133 C 686.13329 298.11577 632.7917 350.87445 614.68945 408.72266 C 588.30544 493.03678 643.81254 561.43745 738.48047 561.4375 C 833.14867 561.43754 931.28346 493.08485 957.51172 408.72266 C 980.64786 334.30609 940.01048 270.7837 861.48047 258.4043 C 921.17053 234.33969 970.76581 187.97374 990.71875 137.55859 C 1020.7848 61.590991 975.39913 0.00017575443 889.36328 0 z M 849.01172 91.498047 C 876.65343 91.499747 890.86632 119.57716 880.75781 154.21094 C 870.6493 188.84468 840.04556 216.92273 812.40234 216.92383 C 784.75794 216.92492 770.54318 188.84692 780.65234 154.21094 C 790.7615 119.57499 821.36768 91.496313 849.01172 91.498047 z M 127.16016 174.07031 L 224.9707 174.07031 L 273.94727 260.75 L 176.13867 260.75 L 127.16016 174.07031 z M 340.93555 174.07031 L 438.73828 174.07031 L 487.7168 260.75 L 389.91211 260.75 L 340.93555 174.07031 z M 120.38867 178.15234 L 167.05859 260.75 L 73.714844 260.75 L 120.38867 178.15234 z M 334.16406 178.15234 L 380.83203 260.75 L 287.49023 260.75 L 334.16406 178.15234 z M 69.248047 268.65039 L 167.05859 268.65039 L 118.08008 355.33594 L 20.277344 355.33594 L 69.248047 268.65039 z M 180.60547 268.65625 L 278.41016 268.65625 L 327.38672 355.33594 L 229.58203 355.33594 L 180.60547 268.65625 z M 287.49023 268.65625 L 380.83203 268.65625 L 334.16406 351.25195 L 287.49023 268.65625 z M 394.37305 268.65625 L 492.18359 268.65625 L 541.16016 355.33594 L 443.35156 355.33594 L 394.37305 268.65625 z M 804.36719 320.37695 C 836.24541 320.37652 854.00937 349.92789 844.04492 386.38086 C 834.08066 422.83315 800.16077 452.38434 768.2832 452.38477 C 736.40503 452.38521 718.64098 422.83389 728.60547 386.38086 C 738.56974 349.92863 772.48965 320.37739 804.36719 320.37695 z " /><style
     type="text/css"
     id="style2-5-4">
	.st0{fill:#FFFFFF;}
	.st1{fill:#0767B0;}
	.st2{fill:#00A44F;}
	.st3{fill:#EA2127;}
	.st4{fill:#221F1F;}
</style><style
     type="text/css"
     id="style2-4-4">
	.st0{fill:#FFFFFF;}
	.st1{fill:#0066B2;}
	.st2{fill:#00A551;}
	.st3{fill:#EC1C24;}
	.st4{fill:#231F20;}
	.st5{fill:#221F1F;}
</style><style
     type="text/css"
     id="style2-3-7">
	.st0{fill:#FFFFFF;}
	.st1{fill:#0066B2;}
	.st2{fill:#00A551;}
	.st3{fill:#EC1C24;}
	.st4{fill:#231F20;}
	.st5{fill:#221F1F;}
</style><style
     type="text/css"
     id="style2-0-6">
	.st0{fill:#FFFFFF;}
	.st1{fill:#0066B2;}
	.st2{fill:#00A551;}
	.st3{fill:#EC1C24;}
	.st4{fill:#231F20;}
	.st5{fill:#221F1F;}
</style><style
     type="text/css"
     id="style2-5-6">
	.st0{fill:#FFFFFF;}
	.st1{fill:#0767B0;}
	.st2{fill:#00A44F;}
	.st3{fill:#EA2127;}
	.st4{fill:#221F1F;}
</style><style
     type="text/css"
     id="style2-4-9">
	.st0{fill:#FFFFFF;}
	.st1{fill:#0066B2;}
	.st2{fill:#00A551;}
	.st3{fill:#EC1C24;}
	.st4{fill:#231F20;}
	.st5{fill:#221F1F;}
</style><style
     type="text/css"
     id="style2-3-0">
	.st0{fill:#FFFFFF;}
	.st1{fill:#0066B2;}
	.st2{fill:#00A551;}
	.st3{fill:#EC1C24;}
	.st4{fill:#231F20;}
	.st5{fill:#221F1F;}
</style><style
     type="text/css"
     id="style2-0-8">
	.st0{fill:#FFFFFF;}
	.st1{fill:#0066B2;}
	.st2{fill:#00A551;}
	.st3{fill:#EC1C24;}
	.st4{fill:#231F20;}
	.st5{fill:#221F1F;}
</style></svg>
