<?xml version="1.0" encoding="UTF-8" standalone="no"?>
<svg
   viewBox="0 0 1000 306.7283"
   version="1.1"
   id="svg12"
   sodipodi:docname="Mediacorp Suria (2023).svg"
   width="1000"
   height="306.7283"
   inkscape:version="1.2.1 (9c6d41e410, 2022-07-14)"
   xml:space="preserve"
   xmlns:inkscape="http://www.inkscape.org/namespaces/inkscape"
   xmlns:sodipodi="http://sodipodi.sourceforge.net/DTD/sodipodi-0.dtd"
   xmlns="http://www.w3.org/2000/svg"
   xmlns:svg="http://www.w3.org/2000/svg"><sodipodi:namedview
     id="namedview14"
     pagecolor="#ffffff"
     bordercolor="#666666"
     borderopacity="1.0"
     inkscape:showpageshadow="2"
     inkscape:pageopacity="0.0"
     inkscape:pagecheckerboard="0"
     inkscape:deskcolor="#d1d1d1"
     showgrid="false"
     inkscape:zoom="0.5"
     inkscape:cx="610"
     inkscape:cy="154"
     inkscape:window-width="1366"
     inkscape:window-height="705"
     inkscape:window-x="-8"
     inkscape:window-y="-8"
     inkscape:window-maximized="1"
     inkscape:current-layer="svg12"
     showguides="true" /><defs
     id="defs4"><style
       id="style2">.cls-1{fill:#00229c;}</style><style
       id="style2-8">.cls-1{fill:#00229c;}</style><linearGradient
       y2="11.1342"
       x2="37.808601"
       y1="11.1342"
       x1="12.6028"
       gradientUnits="userSpaceOnUse"
       id="Gradient__1"
       gradientTransform="scale(7.9365079)"><stop
         id="stop25653"
         style="stop-color:#ec008c;stop-opacity:1;"
         offset="0.09810127" /><stop
         id="stop25655"
         style="stop-color:#2E3192"
         offset="0.89873415" /></linearGradient><linearGradient
       y2="11.1342"
       x2="37.808601"
       y1="11.1342"
       x1="12.6028"
       gradientUnits="userSpaceOnUse"
       id="Gradient__2"
       gradientTransform="scale(7.9365079)"><stop
         id="stop24921"
         style="stop-color:#f6921e;stop-opacity:1;"
         offset="0.09810133" /><stop
         id="stop24923"
         style="stop-color:#be1e2d;stop-opacity:1"
         offset="0.89999998" /></linearGradient><linearGradient
       y2="11.1342"
       x2="113.4254"
       y1="11.1342"
       x1="75.616699"
       gradientUnits="userSpaceOnUse"
       id="Gradient__3"><stop
         id="stop4326-2"
         style="stop-color:#49C0B6"
         offset="0.09983418" /><stop
         id="stop4332-5"
         style="stop-color:#0072BC"
         offset="0.90189874" /></linearGradient><linearGradient
       y2="22.268499"
       x2="75.616898"
       y1="44.537498"
       x1="75.616898"
       gradientUnits="userSpaceOnUse"
       id="Gradient__4"><stop
         id="stop3910-6"
         style="stop-color:#BCD85F"
         offset="0.10443038" /><stop
         id="stop3920-5"
         style="stop-color:#00664B"
         offset="0.89873421" /></linearGradient><style
       id="style2-02">.cls-1{fill:#00229c;}</style><style
       id="style2-8-2">.cls-1{fill:#00229c;}</style><style
       id="style2-35">.cls-1{fill:#00229c;}</style></defs><style
     type="text/css"
     id="style2-5">
	.st0{fill:#FFFFFF;}
	.st1{fill:#0767B0;}
	.st2{fill:#00A44F;}
	.st3{fill:#EA2127;}
	.st4{fill:#221F1F;}
</style><style
     type="text/css"
     id="style2-4">
	.st0{fill:#FFFFFF;}
	.st1{fill:#0066B2;}
	.st2{fill:#00A551;}
	.st3{fill:#EC1C24;}
	.st4{fill:#231F20;}
	.st5{fill:#221F1F;}
</style><style
     type="text/css"
     id="style2-3">
	.st0{fill:#FFFFFF;}
	.st1{fill:#0066B2;}
	.st2{fill:#00A551;}
	.st3{fill:#EC1C24;}
	.st4{fill:#231F20;}
	.st5{fill:#221F1F;}
</style><style
     type="text/css"
     id="style2-0">
	.st0{fill:#FFFFFF;}
	.st1{fill:#0066B2;}
	.st2{fill:#00A551;}
	.st3{fill:#EC1C24;}
	.st4{fill:#231F20;}
	.st5{fill:#221F1F;}
</style><style
     type="text/css"
     id="style2-5-4">
	.st0{fill:#FFFFFF;}
	.st1{fill:#0767B0;}
	.st2{fill:#00A44F;}
	.st3{fill:#EA2127;}
	.st4{fill:#221F1F;}
</style><style
     type="text/css"
     id="style2-4-4">
	.st0{fill:#FFFFFF;}
	.st1{fill:#0066B2;}
	.st2{fill:#00A551;}
	.st3{fill:#EC1C24;}
	.st4{fill:#231F20;}
	.st5{fill:#221F1F;}
</style><style
     type="text/css"
     id="style2-3-7">
	.st0{fill:#FFFFFF;}
	.st1{fill:#0066B2;}
	.st2{fill:#00A551;}
	.st3{fill:#EC1C24;}
	.st4{fill:#231F20;}
	.st5{fill:#221F1F;}
</style><style
     type="text/css"
     id="style2-0-6">
	.st0{fill:#FFFFFF;}
	.st1{fill:#0066B2;}
	.st2{fill:#00A551;}
	.st3{fill:#EC1C24;}
	.st4{fill:#231F20;}
	.st5{fill:#221F1F;}
</style><style
     type="text/css"
     id="style2-5-6">
	.st0{fill:#FFFFFF;}
	.st1{fill:#0767B0;}
	.st2{fill:#00A44F;}
	.st3{fill:#EA2127;}
	.st4{fill:#221F1F;}
</style><style
     type="text/css"
     id="style2-4-9">
	.st0{fill:#FFFFFF;}
	.st1{fill:#0066B2;}
	.st2{fill:#00A551;}
	.st3{fill:#EC1C24;}
	.st4{fill:#231F20;}
	.st5{fill:#221F1F;}
</style><style
     type="text/css"
     id="style2-3-0">
	.st0{fill:#FFFFFF;}
	.st1{fill:#0066B2;}
	.st2{fill:#00A551;}
	.st3{fill:#EC1C24;}
	.st4{fill:#231F20;}
	.st5{fill:#221F1F;}
</style><style
     type="text/css"
     id="style2-0-8">
	.st0{fill:#FFFFFF;}
	.st1{fill:#0066B2;}
	.st2{fill:#00A551;}
	.st3{fill:#EC1C24;}
	.st4{fill:#231F20;}
	.st5{fill:#221F1F;}
</style><g
     id="g4369"><path
       style="display:inline;fill:#ffaa00;fill-opacity:1;stroke-width:0.912069;opacity:1"
       d="M 153.36607,0 C 68.40288,0 0,68.39911 0,153.36225 c 0,84.96316 68.40288,153.36604 153.36607,153.36606 84.96314,0 153.36606,-68.4029 153.36606,-153.36606 C 306.73213,68.39911 238.32921,0 153.36607,0 Z M 69.47392,95.09952 h 53.43503 l 26.75949,47.35504 H 96.22961 Z m 116.79079,0 h 53.43504 l 26.75568,47.35504 h -53.4312 z m -120.4903,2.22964 25.49578,45.1254 H 40.2767 Z m 116.79269,0 25.4977,45.1254 H 157.06749 Z M 37.83517,146.76878 H 91.27019 L 64.5145,194.12955 H 11.07948 Z m 60.83788,0.003 h 53.43311 l 26.75569,47.35696 h -53.4312 z m 58.39444,0 h 50.99731 l -25.4977,45.12541 z m 58.39636,0 h 53.4331 l 26.75952,47.35686 h -53.43883 z"
       id="path4361" /><path
       style="display:inline;opacity:1;fill:#ffaa00;fill-opacity:1;fill-rule:evenodd;stroke-width:73.8587;stroke-linejoin:round;stroke-miterlimit:100.1;paint-order:stroke fill markers"
       d="m 730.8941,80.55191 c -29.60574,0 -53.4398,23.83407 -53.4398,53.43983 v 88.70504 c 0,1.6542 1.33213,2.98633 2.98633,2.98633 h 35.82489 c 1.6542,0 2.98633,-1.33213 2.98633,-2.98633 v -87.21189 c 0,-8.77439 5.50475,-14.04901 14.61535,-14.04901 h 41.844 c 0.8777,0 1.5838,-0.70834 1.5838,-1.58608 V 82.13578 c 0,-0.87775 -0.7061,-1.58387 -1.5838,-1.58387 z"
       id="path4358" /><path
       style="display:inline;opacity:1;fill:#ffaa00;fill-opacity:1;fill-rule:evenodd;stroke-width:73.8587;stroke-linejoin:round;stroke-miterlimit:100.1;paint-order:stroke fill markers"
       d="m 862.3391,80.53643 c -1.2122,0 -2.1878,0.97558 -2.1878,2.18776 v 36.63895 c 0,1.21219 0.9756,2.18776 2.1878,2.18776 h 84.8825 c 4.816,0 10.0585,3.55246 10.0585,6.63408 0,1.07573 -0.7626,1.78738 -2.9886,1.78738 h -56.3377 c -26.5118,0 -47.8565,21.34486 -47.8565,47.85647 0,26.5117 21.3447,47.85428 47.8565,47.85428 h 99.6594 c 1.3216,0 2.3868,-1.06534 2.3868,-2.38685 v -89.73367 c 0,-29.37646 -23.6495,-53.02616 -53.0262,-53.02616 z m 35.7828,90.4504 h 58.3905 c 1.3215,0 2.3847,1.06318 2.3847,2.38464 v 4.62548 c 0,3.88361 -3.1266,7.01013 -7.0102,7.01013 h -53.765 c -3.8836,0 -7.0101,-3.12652 -7.0101,-7.01013 0,-3.88361 3.1265,-7.01012 7.0101,-7.01012 z"
       id="path4355" /><path
       id="path4352"
       style="display:inline;opacity:1;fill:#ffaa00;fill-opacity:1;fill-rule:evenodd;stroke-width:73.8587;stroke-linejoin:round;stroke-miterlimit:100.1;paint-order:stroke fill markers"
       d="M 798.33594 80.537109 C 797.01454 80.537109 795.95117 81.600427 795.95117 82.921875 L 795.95117 223.28125 C 795.95117 224.6027 797.01454 225.66797 798.33594 225.66797 L 838.27734 225.66797 C 839.59894 225.66797 840.66211 224.6027 840.66211 223.28125 L 840.66211 82.921875 C 840.66211 81.600427 839.59894 80.537109 838.27734 80.537109 L 798.33594 80.537109 z " /><path
       style="display:inline;opacity:1;fill:#ffaa00;fill-opacity:1;fill-rule:evenodd;stroke-width:73.8587;stroke-linejoin:round;stroke-miterlimit:100.1;paint-order:stroke fill markers"
       d="m 621.69842,80.53643 c -0.87777,0 -1.58386,0.70609 -1.58386,1.58387 v 87.26497 c 0,9.99041 -5.98971,15.41388 -15.41389,15.41388 h -33.36725 c -8.57469,0 -14.50914,-5.36817 -14.50914,-17.34062 V 82.13578 c 0,-0.87777 -0.70609,-1.58387 -1.58386,-1.58387 h -37.93965 c -0.87777,0 -1.58387,0.7061 -1.58387,1.58387 v 89.84427 c 0,29.75077 23.95229,53.70306 53.70305,53.70306 h 38.66524 c 29.75076,0 53.70304,-23.95229 53.70304,-53.70306 V 82.1203 c 0,-0.87778 -0.70611,-1.58387 -1.58386,-1.58387 z"
       id="path4349" /><path
       style="display:inline;opacity:1;fill:#ffaa00;fill-opacity:1;fill-rule:evenodd;stroke-width:73.8587;stroke-linejoin:round;stroke-miterlimit:100.1;paint-order:stroke fill markers"
       d="m 413.04247,80.53643 c -34.17862,0 -54.03929,20.69669 -54.03929,46.54029 0,23.01536 19.0471,46.54028 52.20989,46.54028 h 43.12924 c 7.27991,0 9.18904,2.25672 9.18904,5.52582 0,3.26911 -2.61825,5.52582 -17.68349,5.52582 h -84.7631 c -1.21218,0 -2.18777,0.97557 -2.18777,2.18776 v 36.63895 c 0,1.21218 0.97559,2.18776 2.18777,2.18776 h 89.97036 c 31.91343,0 54.0393,-20.69665 54.0393,-46.54029 0,-26.0254 -18.53838,-46.54029 -54.24944,-46.54029 h -38.93952 c -8.08085,0 -11.11357,-2.25677 -11.11357,-5.52581 0,-3.2691 2.61818,-5.52582 17.68349,-5.52582 h 77.96974 c 1.21218,0 2.18776,-0.97557 2.18776,-2.18776 V 82.72419 c 0,-1.21218 -0.97558,-2.18776 -2.18776,-2.18776 z"
       id="path4346" /></g></svg>
