<?xml version="1.0" encoding="UTF-8" standalone="no"?>
<svg
   viewBox="0 0 1000 588.67509"
   version="1.1"
   id="svg12"
   sodipodi:docname="Mediacorp 5 (2023).svg"
   width="1000"
   height="588.67511"
   inkscape:version="1.2.1 (9c6d41e410, 2022-07-14)"
   xml:space="preserve"
   xmlns:inkscape="http://www.inkscape.org/namespaces/inkscape"
   xmlns:sodipodi="http://sodipodi.sourceforge.net/DTD/sodipodi-0.dtd"
   xmlns="http://www.w3.org/2000/svg"
   xmlns:svg="http://www.w3.org/2000/svg"><sodipodi:namedview
     id="namedview14"
     pagecolor="#ffffff"
     bordercolor="#666666"
     borderopacity="1.0"
     inkscape:showpageshadow="2"
     inkscape:pageopacity="0.0"
     inkscape:pagecheckerboard="0"
     inkscape:deskcolor="#d1d1d1"
     showgrid="false"
     inkscape:zoom="0.5"
     inkscape:cx="420"
     inkscape:cy="296"
     inkscape:window-width="1366"
     inkscape:window-height="705"
     inkscape:window-x="-8"
     inkscape:window-y="-8"
     inkscape:window-maximized="1"
     inkscape:current-layer="svg12" /><defs
     id="defs4"><style
       id="style2">.cls-1{fill:#00229c;}</style><style
       id="style2-8">.cls-1{fill:#00229c;}</style><linearGradient
       y2="11.1342"
       x2="37.808601"
       y1="11.1342"
       x1="12.6028"
       gradientUnits="userSpaceOnUse"
       id="Gradient__1"
       gradientTransform="scale(7.9365079)"><stop
         id="stop25653"
         style="stop-color:#ec008c;stop-opacity:1;"
         offset="0.09810127" /><stop
         id="stop25655"
         style="stop-color:#2E3192"
         offset="0.89873415" /></linearGradient><linearGradient
       y2="11.1342"
       x2="37.808601"
       y1="11.1342"
       x1="12.6028"
       gradientUnits="userSpaceOnUse"
       id="Gradient__2"
       gradientTransform="scale(7.9365079)"><stop
         id="stop24921"
         style="stop-color:#f6921e;stop-opacity:1;"
         offset="0.09810133" /><stop
         id="stop24923"
         style="stop-color:#be1e2d;stop-opacity:1"
         offset="0.89999998" /></linearGradient><linearGradient
       y2="11.1342"
       x2="113.4254"
       y1="11.1342"
       x1="75.616699"
       gradientUnits="userSpaceOnUse"
       id="Gradient__3"><stop
         id="stop4326-2"
         style="stop-color:#49C0B6"
         offset="0.09983418" /><stop
         id="stop4332-5"
         style="stop-color:#0072BC"
         offset="0.90189874" /></linearGradient><linearGradient
       y2="22.268499"
       x2="75.616898"
       y1="44.537498"
       x1="75.616898"
       gradientUnits="userSpaceOnUse"
       id="Gradient__4"><stop
         id="stop3910-6"
         style="stop-color:#BCD85F"
         offset="0.10443038" /><stop
         id="stop3920-5"
         style="stop-color:#00664B"
         offset="0.89873421" /></linearGradient></defs><style
     type="text/css"
     id="style2-5">
	.st0{fill:#FFFFFF;}
	.st1{fill:#0767B0;}
	.st2{fill:#00A44F;}
	.st3{fill:#EA2127;}
	.st4{fill:#221F1F;}
</style><style
     type="text/css"
     id="style2-4">
	.st0{fill:#FFFFFF;}
	.st1{fill:#0066B2;}
	.st2{fill:#00A551;}
	.st3{fill:#EC1C24;}
	.st4{fill:#231F20;}
	.st5{fill:#221F1F;}
</style><style
     type="text/css"
     id="style2-3">
	.st0{fill:#FFFFFF;}
	.st1{fill:#0066B2;}
	.st2{fill:#00A551;}
	.st3{fill:#EC1C24;}
	.st4{fill:#231F20;}
	.st5{fill:#221F1F;}
</style><style
     type="text/css"
     id="style2-0">
	.st0{fill:#FFFFFF;}
	.st1{fill:#0066B2;}
	.st2{fill:#00A551;}
	.st3{fill:#EC1C24;}
	.st4{fill:#231F20;}
	.st5{fill:#221F1F;}
</style><path
     id="path8"
     style="fill:#0022a2;fill-opacity:1;stroke-width:1.75043"
     d="M 294.33758,0 C 131.27682,0 0,131.27685 0,294.33755 c 0,163.06073 131.27682,294.33758 294.33758,294.33758 163.06074,0 294.33758,-131.27685 294.33758,-294.33758 C 588.67516,131.27685 457.39832,0 294.33758,0 Z M 1000,0 750.02994,45.187138 634.24693,304.64605 c 0,0 52.06516,-12.55933 78.25629,-12.55933 51.61988,0 66.73729,20.05144 66.73729,44.24773 0,39.32574 -101.83098,134.68275 -219.8768,252.34068 h 154.20505 c 50.63873,-47.61131 238.31231,-206.08966 238.31231,-290.80684 0,-86.13849 -82.37723,-107.79022 -143.12735,-110.10232 L 830.49297,136.255 956.62864,118.9544 Z M 133.32957,182.514 h 102.55536 l 51.35334,90.88503 H 184.6829 Z m 224.14519,0 h 102.54907 l 51.35337,90.88503 H 408.82812 Z m -231.24451,4.28102 48.93226,86.60401 H 77.291672 Z m 224.14523,0 48.93225,86.60401 H 301.43689 Z M 72.607143,281.68364 H 175.16251 l -51.35333,90.89132 H 21.260104 Z m 116.760287,0.006 H 291.9165 l 51.35334,90.885 H 240.72076 Z m 112.06946,0 h 97.87084 l -48.93225,86.60398 z m 112.06947,0 h 102.55537 l 51.35333,90.885 H 464.85969 Z" /></svg>
