<?xml version="1.0" encoding="UTF-8" standalone="no"?>
<svg
   viewBox="0 0 1000 215.422"
   version="1.1"
   id="svg12"
   sodipodi:docname="Mediacorp Vasantham (2023).svg"
   width="1000"
   height="215.42201"
   inkscape:version="1.2.1 (9c6d41e410, 2022-07-14)"
   xml:space="preserve"
   xmlns:inkscape="http://www.inkscape.org/namespaces/inkscape"
   xmlns:sodipodi="http://sodipodi.sourceforge.net/DTD/sodipodi-0.dtd"
   xmlns="http://www.w3.org/2000/svg"
   xmlns:svg="http://www.w3.org/2000/svg"><sodipodi:namedview
     id="namedview14"
     pagecolor="#ffffff"
     bordercolor="#666666"
     borderopacity="1.0"
     inkscape:showpageshadow="2"
     inkscape:pageopacity="0.0"
     inkscape:pagecheckerboard="0"
     inkscape:deskcolor="#d1d1d1"
     showgrid="false"
     inkscape:zoom="0.70710678"
     inkscape:cx="483.66104"
     inkscape:cy="104.6518"
     inkscape:window-width="1366"
     inkscape:window-height="705"
     inkscape:window-x="-8"
     inkscape:window-y="-8"
     inkscape:window-maximized="1"
     inkscape:current-layer="svg12"
     showguides="true" /><defs
     id="defs4"><inkscape:path-effect
       effect="spiro"
       id="path-effect3253"
       is_visible="true"
       lpeversion="1" /><inkscape:path-effect
       effect="spiro"
       id="path-effect3153"
       is_visible="true"
       lpeversion="1" /><style
       id="style2">.cls-1{fill:#00229c;}</style><style
       id="style2-8">.cls-1{fill:#00229c;}</style><linearGradient
       y2="11.1342"
       x2="37.808601"
       y1="11.1342"
       x1="12.6028"
       gradientUnits="userSpaceOnUse"
       id="Gradient__1"
       gradientTransform="scale(7.9365079)"><stop
         id="stop25653"
         style="stop-color:#ec008c;stop-opacity:1;"
         offset="0.09810127" /><stop
         id="stop25655"
         style="stop-color:#2E3192"
         offset="0.89873415" /></linearGradient><linearGradient
       y2="11.1342"
       x2="37.808601"
       y1="11.1342"
       x1="12.6028"
       gradientUnits="userSpaceOnUse"
       id="Gradient__2"
       gradientTransform="scale(7.9365079)"><stop
         id="stop24921"
         style="stop-color:#f6921e;stop-opacity:1;"
         offset="0.09810133" /><stop
         id="stop24923"
         style="stop-color:#be1e2d;stop-opacity:1"
         offset="0.89999998" /></linearGradient><linearGradient
       y2="11.1342"
       x2="113.4254"
       y1="11.1342"
       x1="75.616699"
       gradientUnits="userSpaceOnUse"
       id="Gradient__3"><stop
         id="stop4326-2"
         style="stop-color:#49C0B6"
         offset="0.09983418" /><stop
         id="stop4332-5"
         style="stop-color:#0072BC"
         offset="0.90189874" /></linearGradient><linearGradient
       y2="22.268499"
       x2="75.616898"
       y1="44.537498"
       x1="75.616898"
       gradientUnits="userSpaceOnUse"
       id="Gradient__4"><stop
         id="stop3910-6"
         style="stop-color:#BCD85F"
         offset="0.10443038" /><stop
         id="stop3920-5"
         style="stop-color:#00664B"
         offset="0.89873421" /></linearGradient><style
       id="style2-02">.cls-1{fill:#00229c;}</style><style
       id="style2-8-2">.cls-1{fill:#00229c;}</style><style
       id="style2-35">.cls-1{fill:#00229c;}</style></defs><style
     type="text/css"
     id="style2-5">
	.st0{fill:#FFFFFF;}
	.st1{fill:#0767B0;}
	.st2{fill:#00A44F;}
	.st3{fill:#EA2127;}
	.st4{fill:#221F1F;}
</style><style
     type="text/css"
     id="style2-4">
	.st0{fill:#FFFFFF;}
	.st1{fill:#0066B2;}
	.st2{fill:#00A551;}
	.st3{fill:#EC1C24;}
	.st4{fill:#231F20;}
	.st5{fill:#221F1F;}
</style><style
     type="text/css"
     id="style2-3">
	.st0{fill:#FFFFFF;}
	.st1{fill:#0066B2;}
	.st2{fill:#00A551;}
	.st3{fill:#EC1C24;}
	.st4{fill:#231F20;}
	.st5{fill:#221F1F;}
</style><style
     type="text/css"
     id="style2-0">
	.st0{fill:#FFFFFF;}
	.st1{fill:#0066B2;}
	.st2{fill:#00A551;}
	.st3{fill:#EC1C24;}
	.st4{fill:#231F20;}
	.st5{fill:#221F1F;}
</style><style
     type="text/css"
     id="style2-5-4">
	.st0{fill:#FFFFFF;}
	.st1{fill:#0767B0;}
	.st2{fill:#00A44F;}
	.st3{fill:#EA2127;}
	.st4{fill:#221F1F;}
</style><style
     type="text/css"
     id="style2-4-4">
	.st0{fill:#FFFFFF;}
	.st1{fill:#0066B2;}
	.st2{fill:#00A551;}
	.st3{fill:#EC1C24;}
	.st4{fill:#231F20;}
	.st5{fill:#221F1F;}
</style><style
     type="text/css"
     id="style2-3-7">
	.st0{fill:#FFFFFF;}
	.st1{fill:#0066B2;}
	.st2{fill:#00A551;}
	.st3{fill:#EC1C24;}
	.st4{fill:#231F20;}
	.st5{fill:#221F1F;}
</style><style
     type="text/css"
     id="style2-0-6">
	.st0{fill:#FFFFFF;}
	.st1{fill:#0066B2;}
	.st2{fill:#00A551;}
	.st3{fill:#EC1C24;}
	.st4{fill:#231F20;}
	.st5{fill:#221F1F;}
</style><style
     type="text/css"
     id="style2-5-6">
	.st0{fill:#FFFFFF;}
	.st1{fill:#0767B0;}
	.st2{fill:#00A44F;}
	.st3{fill:#EA2127;}
	.st4{fill:#221F1F;}
</style><style
     type="text/css"
     id="style2-4-9">
	.st0{fill:#FFFFFF;}
	.st1{fill:#0066B2;}
	.st2{fill:#00A551;}
	.st3{fill:#EC1C24;}
	.st4{fill:#231F20;}
	.st5{fill:#221F1F;}
</style><style
     type="text/css"
     id="style2-3-0">
	.st0{fill:#FFFFFF;}
	.st1{fill:#0066B2;}
	.st2{fill:#00A551;}
	.st3{fill:#EC1C24;}
	.st4{fill:#231F20;}
	.st5{fill:#221F1F;}
</style><style
     type="text/css"
     id="style2-0-8">
	.st0{fill:#FFFFFF;}
	.st1{fill:#0066B2;}
	.st2{fill:#00A551;}
	.st3{fill:#EC1C24;}
	.st4{fill:#231F20;}
	.st5{fill:#221F1F;}
</style><g
     id="g3427"><path
       style="opacity:1;fill:#008eff;fill-opacity:1;stroke-width:0.640556"
       d="M 107.71094,0 C 48.040617,0 0,48.040625 0,107.71094 c 0,59.67025 48.040617,107.71094 107.71094,107.71094 59.67027,0 107.70898,-48.04069 107.70898,-107.71094 C 215.41992,48.040625 167.38121,0 107.71094,0 Z M 48.791016,66.789062 h 37.53125 L 105.11133,100.04688 H 67.585938 Z m 82.025394,0 h 37.52539 l 18.79297,33.257818 h -37.52735 z m -84.623051,1.566407 17.90625,31.691411 h -35.8125 z m 82.025391,0 17.90234,31.691411 h -35.8125 z M 26.568359,103.08008 h 37.53125 L 45.306641,136.3418 H 7.78125 Z m 42.730469,0.004 h 37.523442 l 18.79492,33.25586 H 88.089844 Z m 41.009762,0 h 35.8125 l -17.90234,31.69141 z m 41.00977,0 h 37.5293 l 18.79296,33.25586 h -37.52929 z"
       id="path5117" /><g
       id="g3414"><path
         style="opacity:1;fill:#008eff;fill-opacity:1;stroke-width:0.640556"
         d="m 251.73633,77.363281 30.96484,79.029299 h 22.96094 L 336.71094,77.363281 H 313.2793 L 294.41602,128.30859 275.31836,77.363281 Z"
         id="path3403" /><path
         style="opacity:1;fill:#008eff;fill-opacity:1;stroke-width:0.640556"
         d="m 931.14062,74.894531 c -9.43101,0 -16.64373,5.138138 -20.51757,12.00586 v -9.53711 h -23.06641 v 79.029299 h 23.06641 v -42.52735 c 0,-11.0263 2.79298,-19.464839 11.80078,-19.464839 9.47682,0 9.82226,7.067779 9.82226,15.091799 v 46.90039 h 23.06641 v -42.52735 c 0,-11.0263 2.79103,-19.464839 11.79883,-19.464839 9.47682,0 9.82226,7.067779 9.82226,15.091799 v 46.90039 H 1000 v -55.97266 c 0,-15.646033 -9.71882,-25.525389 -24.17188,-25.525389 -10.22136,0 -18.67716,5.874594 -22.85937,13.455078 -3.70802,-8.477334 -11.57367,-13.455078 -21.82813,-13.455078 z"
         id="path3401" /><path
         style="opacity:1;fill:#008eff;fill-opacity:1;stroke-width:0.640556"
         d="m 839.56055,74.894531 c -21.53241,0 -34.68798,13.125279 -35.83594,29.033199 h 22.60547 c 1.24897,-6.271199 5.05153,-9.687496 12.20898,-9.687496 8.05375,0 12.41992,3.409718 12.41992,8.244146 0,4.97556 -3.65088,5.24465 -17.38476,7.31445 -17.95722,2.70631 -31.51172,9.16158 -31.51172,24.88086 0,16.2954 12.04017,23.20117 24.05859,23.20117 8.28887,0 19.63737,-3.59356 24.83789,-14.21875 v 12.73047 h 23.06641 V 106.3125 c 0,-16.535247 -9.78954,-31.417969 -34.46484,-31.417969 z m 11.39843,45.212889 v 2.25977 c 0,8.49659 -7.36595,17.60743 -15.44921,17.60742 -6.66178,0 -10.24805,-2.75078 -10.24805,-7.68555 0,-5.36327 3.36064,-7.91326 12.26758,-9.34765 6.90922,-1.11267 13.42968,-2.83399 13.42968,-2.83399 z"
         id="path3399" /><path
         style="opacity:1;fill:#008eff;fill-opacity:1;stroke-width:0.640556"
         d="m 625.53125,74.894531 c -9.74714,0 -17.60452,4.237472 -22.30859,12.128907 V 77.363281 H 580.1543 v 79.029299 h 18.24414 4.82422 v -42.52735 c 0,-11.02634 5.41602,-19.464839 14.42382,-19.464839 9.47679,0 13.40235,5.380501 13.40235,15.091799 v 46.90039 h 23.0664 v -47.53906 c 0,-21.433331 -11.0246,-33.958989 -28.58398,-33.958989 z"
         id="path3397" /><path
         style="opacity:1;fill:#008eff;fill-opacity:1;stroke-width:0.640556"
         d="m 532.07812,74.894531 c -21.53243,0 -34.68601,13.125279 -35.83398,29.033199 h 22.60547 c 1.249,-6.271199 5.05143,-9.687496 12.20898,-9.687496 8.05374,0 12.41993,3.409718 12.41993,8.244146 0,4.97556 -3.65079,5.24465 -17.38477,7.31445 -17.95724,2.70631 -31.51368,9.16158 -31.51367,24.88086 0,16.2954 12.04212,23.20117 24.06054,23.20117 8.28885,0 19.63737,-3.59356 24.8379,-14.21875 v 12.73047 h 23.0664 V 106.3125 c 0,-16.535247 -9.79148,-31.417969 -34.4668,-31.417969 z m 11.4004,45.212889 v 2.25977 c 0,8.49659 -7.3659,17.60743 -15.44922,17.60742 -6.6618,0 -10.24805,-2.75078 -10.24805,-7.68555 0,-5.36327 3.35871,-7.91326 12.26563,-9.34765 6.90921,-1.11267 13.43164,-2.83399 13.43164,-2.83399 z"
         id="path3395" /><path
         style="opacity:1;fill:#008eff;fill-opacity:1;stroke-width:0.640556"
         d="m 374.67383,74.894531 c -21.53243,0 -34.68798,13.125279 -35.83594,29.033199 h 22.60742 c 1.24899,-6.271199 5.05143,-9.687496 12.20899,-9.687496 8.05374,0 12.41992,3.409718 12.41992,8.244146 0,4.97556 -3.65079,5.24465 -17.38477,7.31445 -17.95724,2.70631 -31.51172,9.16158 -31.51172,24.88086 0,16.2954 12.04017,23.20117 24.0586,23.20117 8.28884,0 19.63736,-3.59356 24.83789,-14.21875 v 12.73047 h 23.06445 V 106.3125 c 0,-16.535247 -9.78953,-31.417969 -34.46484,-31.417969 z m 11.40039,45.212889 v 2.25977 c 0,8.49659 -7.36395,17.60743 -15.44727,17.60742 -6.66179,0 -10.25,-2.75078 -10.25,-7.68555 0,-5.36327 3.35871,-7.91326 12.26563,-9.34765 6.9092,-1.11267 13.43164,-2.83399 13.43164,-2.83399 z"
         id="path3393" /><path
         style="opacity:1;fill:#008eff;fill-opacity:1;stroke-width:0.640556"
         d="m 452.96484,74.660156 c -23.07188,0 -33.14119,11.971301 -33.28906,26.833984 -0.1894,19.0348 18.96327,22.15968 30.13867,24.94141 9.58992,2.38694 14.72852,2.34049 14.72852,7.26953 0,4.12927 -3.76529,7.34765 -11.12891,7.34765 -7.32071,0 -12.22076,-2.88935 -13.45312,-10.12109 h -22.8125 c 0.99408,18.86267 16.45306,27.88672 35.78906,27.88672 19.33614,0 35.09766,-9.18597 35.09766,-26.9375 0,-16.68183 -11.20152,-21.30437 -26.94727,-24.78125 -13.956,-3.08168 -18.30664,-3.87435 -18.30664,-8.300782 0,-3.231475 3.3789,-6.330078 9.77539,-6.330078 5.79475,0 10.97171,3.435296 11.04883,9.39258 h 22.6543 C 484.73474,89.789214 477.48404,74.660172 452.96484,74.660156 Z"
         id="path3391" /><path
         style="opacity:1;fill:#008eff;fill-opacity:1;stroke-width:0.640556"
         d="m 719.94531,56.84375 v 99.54883 h 18.24414 4.82422 v -42.52735 c 0,-11.02634 5.41603,-19.464839 14.42383,-19.464839 9.47683,0 12.8457,5.380501 12.8457,15.091799 v 46.90039 h 23.62305 v -47.53906 c 0,-21.433331 -11.02469,-33.958989 -28.58398,-33.958989 -9.74717,0 -17.60454,4.237472 -22.3086,12.128907 V 56.84375 Z"
         id="path3389" /><path
         style="opacity:1;fill:#008eff;fill-opacity:1;stroke-width:0.640556"
         d="m 670.7168,56.84375 v 20.519531 h -11.88282 v 18.775391 h 11.88282 v 39.724608 c 0,17.03831 12.3294,22.95508 22.48437,22.95508 7.05145,0 12.8011,-0.97334 16.19141,-2.34961 v -18.68359 c -2.19235,0.71446 -4.42136,0.99609 -6.97852,0.99609 -4.57999,0 -8.63086,-1.14795 -8.63086,-7.00195 V 96.138672 h 15.60938 V 77.363281 H 693.7832 V 56.84375 Z"
         id="path3387" /></g></g></svg>
